<?xml version="1.0" standalone="no"?>
<!DOCTYPE svg PUBLIC "-//W3C//DTD SVG 20010904//EN"
 "http://www.w3.org/TR/2001/REC-SVG-20010904/DTD/svg10.dtd">
<svg version="1.0" xmlns="http://www.w3.org/2000/svg"
 width="500.000000pt" height="500.000000pt" viewBox="0 0 500.000000 500.000000"
 preserveAspectRatio="xMidYMid meet">

<g transform="translate(0.000000,500.000000) scale(0.100000,-0.100000)"
fill="#000000" stroke="none">
<path d="M2275 3733 c-27 -8 -59 -19 -70 -23 -11 -5 -28 -11 -38 -14 -40 -13
-3 -193 51 -248 9 -9 23 -23 29 -30 57 -59 84 -80 116 -88 45 -10 49 4 6 19
-22 7 -29 15 -25 26 3 8 1 15 -5 15 -15 0 -69 42 -64 50 2 4 -7 12 -21 19 -14
6 -23 15 -20 20 3 5 -1 14 -10 21 -8 7 -13 19 -10 26 3 7 -2 18 -9 24 -8 7
-12 16 -9 21 3 5 2 15 -3 22 -14 23 -11 79 6 84 9 3 26 10 38 15 12 6 29 8 37
5 8 -3 18 -1 22 4 3 6 15 9 25 6 10 -3 21 -2 23 1 5 9 59 7 74 -2 7 -4 17 -4
22 -1 6 4 17 1 25 -5 8 -6 18 -9 23 -6 6 3 15 -1 22 -10 7 -8 19 -13 27 -10
18 7 64 -64 70 -111 4 -32 1 -42 -22 -63 -21 -20 -29 -22 -43 -13 -9 7 -39 26
-67 43 -48 29 -49 29 -16 3 89 -72 88 -69 71 -99 -8 -15 -31 -35 -50 -45 l-35
-19 185 1 c111 0 177 4 164 9 -11 4 -33 23 -49 41 l-27 33 53 50 c53 48 36 47
-28 -2 -37 -27 -54 -25 -79 13 -14 22 -15 32 -5 64 13 44 47 91 66 91 7 0 18
7 25 15 7 8 16 12 22 9 5 -3 15 0 23 6 8 6 19 9 25 5 6 -4 17 -2 25 5 9 7 15
8 20 0 4 -7 12 -7 25 0 18 9 27 9 68 -7 9 -3 25 -5 35 -4 10 1 34 -5 53 -14
26 -12 33 -21 29 -35 -3 -10 -1 -21 5 -25 8 -5 6 -13 -5 -25 -9 -10 -14 -23
-11 -29 4 -5 1 -13 -5 -16 -5 -4 -8 -13 -5 -20 3 -8 -2 -19 -10 -25 -8 -7 -14
-17 -14 -22 0 -5 -35 -43 -77 -84 -72 -69 -75 -74 -49 -74 19 0 29 6 33 20 3
11 11 20 18 20 19 0 104 89 121 128 9 21 20 46 25 57 20 46 15 134 -8 141 -10
3 -27 9 -38 14 -53 22 -134 38 -170 36 -132 -11 -192 -40 -231 -114 l-22 -42
-24 42 c-13 23 -41 54 -63 69 -61 42 -189 57 -270 32z"/>
<path d="M2384 3218 l-19 -23 23 19 c21 18 27 26 19 26 -2 0 -12 -10 -23 -22z"/>
<path d="M2555 3220 c10 -11 20 -20 23 -20 3 0 -3 9 -13 20 -10 11 -20 20 -23
20 -3 0 3 -9 13 -20z"/>
<path d="M2684 3218 l-19 -23 23 19 c12 11 22 21 22 23 0 8 -8 2 -26 -19z"/>
<path d="M2694 2911 c18 -20 18 -22 1 -41 -22 -24 -101 -28 -131 -6 -16 13
-17 18 -7 35 10 16 3 14 -37 -11 -27 -17 -57 -40 -67 -51 -12 -14 -6 -12 15 6
48 39 92 32 92 -16 0 -17 2 -17 22 -3 35 25 83 20 107 -10 22 -28 28 -69 11
-79 -18 -11 -10 -26 10 -20 14 5 29 -2 50 -23 30 -31 40 -31 40 -2 0 29 27 45
48 29 14 -11 15 -11 5 1 -7 8 -13 22 -13 33 0 15 -4 13 -24 -10 l-24 -28 -29
21 c-41 30 -67 87 -53 115 9 15 19 20 36 16 13 -2 24 -3 24 -1 0 1 -21 17 -47
35 -33 21 -42 25 -29 10z"/>
<path d="M2795 2840 c10 -11 20 -20 23 -20 3 0 -3 9 -13 20 -10 11 -20 20 -23
20 -3 0 3 -9 13 -20z"/>
<path d="M2522 2748 c-28 -33 -65 -37 -85 -8 -14 20 -15 20 -19 2 -4 -13 0
-19 10 -18 9 0 23 -12 30 -28 l15 -29 17 23 c25 33 67 30 102 -9 31 -35 37
-84 13 -111 -13 -14 -11 -16 22 -16 26 0 42 -7 58 -26 l22 -25 42 40 c30 27
46 36 53 29 7 -7 18 -2 34 18 13 15 24 31 24 35 0 4 -9 -3 -19 -16 -19 -23
-19 -24 -40 -5 -17 15 -21 16 -21 4 0 -18 -38 -54 -68 -63 -17 -5 -29 1 -52
24 -35 34 -37 54 -11 96 l18 31 -34 -4 c-39 -5 -69 17 -81 58 l-7 27 -23 -29z"/>
<path d="M2405 2620 c17 -31 37 -48 51 -43 8 3 33 -9 55 -27 37 -29 42 -31 57
-17 14 15 13 16 -5 11 -23 -6 -83 39 -83 64 0 13 -3 12 -14 -4 -14 -19 -15
-18 -42 6 -15 14 -24 18 -19 10z"/>
<path d="M2784 2498 l-19 -23 23 19 c21 18 27 26 19 26 -2 0 -12 -10 -23 -22z"/>
<path d="M2460 2506 c0 -2 8 -10 18 -17 15 -13 16 -12 3 4 -13 16 -21 21 -21
13z"/>
</g>
</svg>
